<?xml version="1.0" encoding="UTF-8" standalone="no"?>
<!-- Created with Inkscape (http://www.inkscape.org/) -->

<svg
   width="7.9375mm"
   height="9.260417mm"
   viewBox="0 0 7.9375 9.260417"
   version="1.1"
   id="svg1"
   inkscape:version="1.3.2 (091e20e, 2023-11-25)"
   sodipodi:docname="gc_wpt_hotel.svg"
   xmlns:inkscape="http://www.inkscape.org/namespaces/inkscape"
   xmlns:sodipodi="http://sodipodi.sourceforge.net/DTD/sodipodi-0.dtd"
   xmlns="http://www.w3.org/2000/svg"
   xmlns:svg="http://www.w3.org/2000/svg">
  <sodipodi:namedview
     id="namedview1"
     pagecolor="#ffffff"
     bordercolor="#666666"
     borderopacity="1.0"
     inkscape:showpageshadow="2"
     inkscape:pageopacity="0.0"
     inkscape:pagecheckerboard="0"
     inkscape:deskcolor="#d1d1d1"
     inkscape:document-units="mm"
     inkscape:zoom="12.585971"
     inkscape:cx="26.259396"
     inkscape:cy="11.798851"
     inkscape:window-width="1920"
     inkscape:window-height="1131"
     inkscape:window-x="0"
     inkscape:window-y="32"
     inkscape:window-maximized="1"
     inkscape:current-layer="layer1"
     showgrid="false" />
  <defs
     id="defs1" />
  <g
     inkscape:label="Layer 1"
     inkscape:groupmode="layer"
     id="layer1">
    <path
       id="path1"
       style="fill:none;stroke:#ff0100;stroke-width:0.465;stroke-linecap:square;stroke-dasharray:none;stroke-opacity:1;paint-order:fill markers stroke"
       d="M 7.9375,4.630209 C 7.9375,2.073015 6.160631,0 3.96875,0 1.77687,0 0,2.073015 0,4.630209 l 3.968748,4.630208 z"
       sodipodi:nodetypes="cscc" />
    <path
       id="hotel"
       d="m 2.0032735,2.185714 c -0.08376,0 -0.15119,0.067431 -0.15119,0.1511909 V 2.4880952 3.6976188 4 4.1511903 4.6047618 h 0.302381 V 4.1511903 4 h 3.628571 v 0.4535736 0.1511882 h 0.151193 0.151188 V 4.4535736 4 3.6976188 3.092857 2.9416667 c 0,-0.08376 -0.06743,-0.1511903 -0.151188,-0.1511903 -0.08376,0 -0.151193,0.067431 -0.151193,0.1511903 V 3.092857 3.6976188 H 2.1544645 V 2.4880952 2.3369049 c 0,-0.08376 -0.06743,-0.1511909 -0.151191,-0.1511909 z m 0.907143,0.3023812 c -0.2505,0 -0.453571,0.2030706 -0.453571,0.4535715 0,0.2505003 0.203071,0.4535715 0.453571,0.4535715 0.250501,0 0.453572,-0.2030712 0.453572,-0.4535715 0,-0.2505009 -0.203071,-0.4535715 -0.453572,-0.4535715 z m 0.755952,0.3023812 v 0.6047618 h 1.814285 c 0,-0.3023812 -0.313318,-0.6047618 -0.604758,-0.6047618 z"
       style="fill:#ff0000;stroke-width:0.302382"
       inkscape:connector-curvature="0" />
  </g>
</svg>
