<?xml version="1.0" encoding="UTF-8" standalone="no"?>
<svg
   viewBox="0 0 16 16"
   version="1.1"
   id="svg6"
   sodipodi:docname="drinking_water_no.svg"
   width="16"
   height="16"
   inkscape:version="1.2.2 (b0a8486541, 2022-12-01)"
   xmlns:inkscape="http://www.inkscape.org/namespaces/inkscape"
   xmlns:sodipodi="http://sodipodi.sourceforge.net/DTD/sodipodi-0.dtd"
   xmlns="http://www.w3.org/2000/svg"
   xmlns:svg="http://www.w3.org/2000/svg"
   xmlns:rdf="http://www.w3.org/1999/02/22-rdf-syntax-ns#"
   xmlns:cc="http://creativecommons.org/ns#"
   xmlns:dc="http://purl.org/dc/elements/1.1/">
  <metadata
     id="metadata12">
    <rdf:RDF>
      <cc:Work
         rdf:about="">
        <dc:format>image/svg+xml</dc:format>
        <dc:type
           rdf:resource="http://purl.org/dc/dcmitype/StillImage" />
      </cc:Work>
    </rdf:RDF>
  </metadata>
  <defs
     id="defs10" />
  <sodipodi:namedview
     pagecolor="#ffffff"
     bordercolor="#666666"
     borderopacity="1"
     objecttolerance="10"
     gridtolerance="10"
     guidetolerance="10"
     inkscape:pageopacity="0"
     inkscape:pageshadow="2"
     inkscape:window-width="1458"
     inkscape:window-height="1052"
     id="namedview8"
     showgrid="false"
     showguides="false"
     inkscape:zoom="27.066667"
     inkscape:cx="10.658867"
     inkscape:cy="9.7721674"
     inkscape:window-x="128"
     inkscape:window-y="73"
     inkscape:window-maximized="0"
     inkscape:current-layer="g4491"
     inkscape:showpageshadow="2"
     inkscape:pagecheckerboard="0"
     inkscape:deskcolor="#d1d1d1" />
  <g
     id="g4491"
     transform="matrix(0.67631637,0,0,0.67631637,-117.85536,160.61048)"
     style="stroke-width:1.4786">
    <g
       style="stroke-width:26.5495;fill:#0092db;fill-opacity:1.0"
       id="g4490"
       transform="matrix(0.03608843,0,0,0.03608843,180.0387,-218.06625)">
      <path
         inkscape:connector-curvature="0"
         d="m 342.2554,-338.88862 -8.07167,6.31657 h -90.20039 v -73.56024 h -37.14977 v -45.83654 h 67.2762 V -475.6264 H 112.2033 v 23.65757 h 67.2762 v 45.83654 h -37.14977 v 73.56024 H 61.623419 v 0.0251 c -0.36965,-0.009 -0.73634,-0.0251 -1.10895,-0.0251 -20.9192,0 -38.03841,15.33602 -39.44751,34.74706 h -0.10498 v 111.63414 h 65.05831 v -59.4559 c -0.23362,-1.0291 -0.36965,-2.09813 -0.36965,-3.19969 0,-7.86022 6.28995,-14.2315 14.04668,-14.2315 0.1242,0 0.24544,0.0163 0.369651,0.0192 v -0.0192 h 237.64765 l 4.54225,3.55455 50.71,39.68261 v -79.36522 -79.36523 z"
         id="path42"
         style="stroke-width:39.2561;fill:#0092db;fill-opacity:1.0" />
      <path
         inkscape:connector-curvature="0"
         d="m 47.773389,-85.15529 c -19.9522,-2.62895 -36.01125,-16.85454 -32.89289,-39.30409 2.88327,-20.76395 28.21757,-31.52223 36.08666,-50.08751 l 1.04537,-0.18482 c 7.8691,18.56527 33.2034,29.32355 36.08666,50.0875 3.41557,24.58317 -16.16699,39.30409 -38.6742,39.73732 z"
         id="path44"
         style="stroke-width:39.2561;fill:#0092db;fill-opacity:1.0" />
      <polygon
         style="stroke-width:26.5488;fill:#0092db;fill-opacity:1.0"
         transform="matrix(1.4786781,0,0,1.478598,-206.01085,-555.23145)"
         points="212.53,392.75 137.536,392.75 121.758,266 100.343,266 118.605,412.706 118.917,412.667 118.917,412.833 230.44,412.833 231.43,412.956 249.692,266.25 228.277,266.25 "
         id="polygon46" />
    </g>
    <path
       id="rect5996"
       style="fill:#ff0000;stroke-width:0.407954;stroke-linecap:square;paint-order:fill markers stroke"
       d="m 195.68303,-237.47833 -21.42234,21.42523 v 2.23234 h 2.08794 l 21.56963,-21.57252 v -2.08505 z" />
  </g>
</svg>
