<?xml version="1.0" encoding="UTF-8" standalone="no"?>
<svg
   width="16"
   height="16"
   fill="currentColor"
   class="bi bi-currency-euro"
   viewBox="0 0 16 16"
   version="1.1"
   id="svg238"
   sodipodi:docname="fee.svg"
   inkscape:version="1.2.2 (b0a8486541, 2022-12-01)"
   xmlns:inkscape="http://www.inkscape.org/namespaces/inkscape"
   xmlns:sodipodi="http://sodipodi.sourceforge.net/DTD/sodipodi-0.dtd"
   xmlns="http://www.w3.org/2000/svg"
   xmlns:svg="http://www.w3.org/2000/svg">
  <defs
     id="defs242" />
  <sodipodi:namedview
     id="namedview240"
     pagecolor="#ffffff"
     bordercolor="#666666"
     borderopacity="1.0"
     inkscape:showpageshadow="2"
     inkscape:pageopacity="0.0"
     inkscape:pagecheckerboard="0"
     inkscape:deskcolor="#d1d1d1"
     showgrid="false"
     inkscape:zoom="14.75"
     inkscape:cx="6.2711864"
     inkscape:cy="8"
     inkscape:window-width="1920"
     inkscape:window-height="1131"
     inkscape:window-x="0"
     inkscape:window-y="32"
     inkscape:window-maximized="1"
     inkscape:current-layer="svg238" />
  <path
     d="M4 9.42h1.063C5.4 12.323 7.317 14 10.34 14c.622 0 1.167-.068 1.659-.185v-1.3c-.484.119-1.045.17-1.659.17-2.1 0-3.455-1.198-3.775-3.264h4.017v-.928H6.497v-.936q-.002-.165.008-.329h4.078v-.927H6.618c.388-1.898 1.719-2.985 3.723-2.985.614 0 1.175.05 1.659.177V2.194A6.6 6.6 0 0 0 10.341 2c-2.928 0-4.82 1.569-5.244 4.3H4v.928h1.01v1.265H4v.928z"
     id="path236"
     style="fill:#0092db;fill-opacity:1.0" />
</svg>
