<?xml version="1.0" encoding="UTF-8" standalone="no"?>
<svg
   version="1.1"
   width="16"
   height="16"
   viewBox="0 0 16 16"
   id="svg2"
   sodipodi:docname="toilet.svg"
   inkscape:version="1.2.2 (b0a8486541, 2022-12-01)"
   xmlns:inkscape="http://www.inkscape.org/namespaces/inkscape"
   xmlns:sodipodi="http://sodipodi.sourceforge.net/DTD/sodipodi-0.dtd"
   xmlns="http://www.w3.org/2000/svg"
   xmlns:svg="http://www.w3.org/2000/svg"
   xmlns:rdf="http://www.w3.org/1999/02/22-rdf-syntax-ns#"
   xmlns:cc="http://creativecommons.org/ns#"
   xmlns:dc="http://purl.org/dc/elements/1.1/">
  <sodipodi:namedview
     id="namedview559"
     pagecolor="#ffffff"
     bordercolor="#666666"
     borderopacity="1.0"
     inkscape:showpageshadow="2"
     inkscape:pageopacity="0.0"
     inkscape:pagecheckerboard="true"
     inkscape:deskcolor="#d1d1d1"
     showgrid="false"
     inkscape:zoom="14.75"
     inkscape:cx="6.2711864"
     inkscape:cy="8"
     inkscape:window-width="1920"
     inkscape:window-height="1131"
     inkscape:window-x="0"
     inkscape:window-y="32"
     inkscape:window-maximized="1"
     inkscape:current-layer="svg2" />
  <metadata
     id="metadata8">
    <rdf:RDF>
      <cc:Work
         rdf:about="">
        <dc:format>image/svg+xml</dc:format>
        <dc:type
           rdf:resource="http://purl.org/dc/dcmitype/StillImage" />
      </cc:Work>
    </rdf:RDF>
  </metadata>
  <defs
     id="defs6" />
  <rect
     width="16"
     height="16"
     x="0"
     y="0"
     id="canvas"
     style="fill:none;stroke:none;visibility:hidden" />
  <path
     d="m 6.25,0 0,14 1.5,0 0,-14 -1.5,0 z M 2.5,1 C 1.671573,1 1,1.6715729 1,2.5 1,3.3284271 1.671573,4 2.5,4 3.328427,4 4,3.3284271 4,2.5 4,1.6715729 3.328427,1 2.5,1 z m 9,0 C 10.671573,1 10,1.6715729 10,2.5 10,3.3284271 10.671573,4 11.5,4 12.328427,4 13,3.3284271 13,2.5 13,1.6715729 12.328427,1 11.5,1 z m -10,4 c -0.599722,0 -1,0.568545 -1,1 0,0.5273339 1.25,1.496636 1.25,2 C 1.75,8.555974 0,9 0,11 l 1.75,0 0,3 1.5,0 0,-3 L 5,11 C 5,9 3.25,8.529509 3.25,8 3.25,7.470492 4.5,6.5513036 4.5,6 4.5,5.5925147 4.075273,5 3.5,5 l -2,0 z M 10,5 C 9.472666,5 9,5.4804699 9,6 c 0,1 1.75,4.016073 1.75,5 l 0,3 1.5,0 0,-3 C 12.25,10.035543 14,7 14,6 14,5.446616 13.551304,5 13,5 l -3,0 z"
     id="toilets"
     style="fill:#0092da;fill-opacity:1.0;stroke:none"
     transform="translate(1,1)" />
</svg>
