<?xml version="1.0" encoding="UTF-8" standalone="no"?>
<svg
   viewBox="0 0 500 820"
   version="1.1"
   xml:space="preserve"
   style="fill-rule: evenodd; clip-rule: evenodd; stroke-linecap: round;"
   id="svg5"
   sodipodi:docname="marker_start.svg"
   inkscape:version="1.3.2 (091e20e, 2023-11-25)"
   xmlns:inkscape="http://www.inkscape.org/namespaces/inkscape"
   xmlns:sodipodi="http://sodipodi.sourceforge.net/DTD/sodipodi-0.dtd"
   xmlns="http://www.w3.org/2000/svg"
   xmlns:svg="http://www.w3.org/2000/svg"><sodipodi:namedview
   id="namedview5"
   pagecolor="#ffffff"
   bordercolor="#666666"
   borderopacity="1.0"
   inkscape:showpageshadow="2"
   inkscape:pageopacity="0.0"
   inkscape:pagecheckerboard="0"
   inkscape:deskcolor="#d1d1d1"
   inkscape:zoom="0.9304878"
   inkscape:cx="250.40629"
   inkscape:cy="410"
   inkscape:window-width="1920"
   inkscape:window-height="1011"
   inkscape:window-x="0"
   inkscape:window-y="32"
   inkscape:window-maximized="1"
   inkscape:current-layer="g5" />
    <defs
   id="defs4">
        <linearGradient
   x1="0"
   y1="0"
   x2="1"
   y2="0"
   gradientUnits="userSpaceOnUse"
   gradientTransform="matrix(2.30025e-15,-37.566,37.566,2.30025e-15,416.455,540.999)"
   id="map-marker-38-f">
            <stop
   offset="0"
   stop-color="rgb(18,111,198)"
   id="stop1"
   style="stop-color:#00ef00;stop-opacity:1;" />
            <stop
   offset="1"
   stop-color="rgb(76,156,209)"
   id="stop2"
   style="stop-color:#00ff09;stop-opacity:1;" />
        </linearGradient>
        <linearGradient
   x1="0"
   y1="0"
   x2="1"
   y2="0"
   gradientUnits="userSpaceOnUse"
   gradientTransform="matrix(1.16666e-15,-19.053,19.053,1.16666e-15,414.482,522.486)"
   id="map-marker-38-s">
            <stop
   offset="0"
   stop-color="rgb(46,108,151)"
   id="stop3"
   style="stop-color:#00ff76;stop-opacity:1;" />
            <stop
   offset="1"
   stop-color="rgb(56,131,183)"
   id="stop4"
   style="stop-color:#00ff85;stop-opacity:1;" />
        </linearGradient>
    </defs>
    <g
   transform="matrix(19.5417,0,0,19.5417,-7889.1,-9807.44)"
   id="g5">
        <path
   fill="#FFFFFF"
   d="M421.2,515.5c0,2.6-2.1,4.7-4.7,4.7c-2.6,0-4.7-2.1-4.7-4.7c0-2.6,2.1-4.7,4.7-4.7 C419.1,510.8,421.2,512.9,421.2,515.5z"
   id="path4" />
        <path
   d="m 416.544,503.612 c -6.573,0 -12.044,5.691 -12.044,11.866 0,2.778 1.564,6.308 2.694,8.746 l 9.306,17.872 9.262,-17.872 c 1.13,-2.438 2.738,-5.791 2.738,-8.746 0,-6.175 -5.383,-11.866 -11.956,-11.866 z m 0,7.155 c 2.584,0.017 4.679,2.122 4.679,4.71 0,2.588 -2.095,4.663 -4.679,4.679 -2.584,-0.017 -4.679,-2.09 -4.679,-4.679 0,-2.588 2.095,-4.693 4.679,-4.71 z"
   stroke-width="1.1px"
   fill="url(#map-marker-38-f)"
   stroke="url(#map-marker-38-s)"
   id="path5"
   sodipodi:nodetypes="sscccsscscsc" />
    </g>
</svg>
