<?xml version="1.0" encoding="UTF-8" standalone="no"?>
<svg
   width="14"
   height="14"
   fill="currentColor"
   class="bi bi-basket3"
   viewBox="0 0 14 14"
   version="1.1"
   id="svg484"
   sodipodi:docname="marker_vending.svg"
   inkscape:version="1.2.2 (b0a8486541, 2022-12-01)"
   xmlns:inkscape="http://www.inkscape.org/namespaces/inkscape"
   xmlns:sodipodi="http://sodipodi.sourceforge.net/DTD/sodipodi-0.dtd"
   xmlns="http://www.w3.org/2000/svg"
   xmlns:svg="http://www.w3.org/2000/svg">
  <defs
     id="defs488" />
  <sodipodi:namedview
     id="namedview486"
     pagecolor="#ffffff"
     bordercolor="#666666"
     borderopacity="1.0"
     inkscape:showpageshadow="2"
     inkscape:pageopacity="0.0"
     inkscape:pagecheckerboard="0"
     inkscape:deskcolor="#d1d1d1"
     showgrid="false"
     inkscape:zoom="14.75"
     inkscape:cx="4.8813559"
     inkscape:cy="8"
     inkscape:window-width="1920"
     inkscape:window-height="1131"
     inkscape:window-x="0"
     inkscape:window-y="32"
     inkscape:window-maximized="1"
     inkscape:current-layer="svg484" />
  <path
     d="m 5.037375,0.73726544 a 0.4375,0.4375 0 0 1 0.1505,0.60024996 l -2.22775,3.712625 h 8.07975 L 8.81125,1.3375154 A 0.43757874,0.43757874 0 1 1 9.562,0.88776544 L 12.060125,5.0501404 H 13.5625 A 0.4375,0.4375 0 0 1 14,5.4876404 v 0.875 a 0.4375,0.4375 0 0 1 -0.4375,0.4375 H 0.4375 A 0.4375,0.4375 0 0 1 0,6.3626404 v -0.875 a 0.4375,0.4375 0 0 1 0.4375,-0.4375 H 1.939875 L 4.43625,0.88776544 a 0.4375,0.4375 0 0 1 0.60025,-0.1505 z M 2.96975,12.925141 1.67475,7.6751404 H 0.826 l 1.334375,5.6227506 a 0.65625,0.65625 0 0 0 0.637875,0.50225 h 8.40525 a 0.65625,0.65625 0 0 0 0.63875,-0.50225 L 13.174,7.6751404 h -0.8505 l -1.294125,5.2500006 z"
     id="path482"
     style="stroke-width:0.875;fill:#0092da;fill-opacity:1" />
</svg>
